<?xml version="1.0" encoding="utf-8"?>
<!-- Generator: Adobe Illustrator 21.1.0, SVG Export Plug-In . SVG Version: 6.00 Build 0)  -->
<svg version="1.1" xmlns="http://www.w3.org/2000/svg" xmlns:xlink="http://www.w3.org/1999/xlink" x="0px" y="0px"
	 viewBox="0 0 900 866" style="enable-background:new 0 0 900 866;" xml:space="preserve">
<style type="text/css">
	.st0{opacity:0;fill:#152128;}
	.st1{opacity:0.15;}
</style>
<g id="Layer_1">
	<rect class="st0" width="900" height="866"/>
</g>
<g id="Layer_2">
	<path class="st1" d="M75,21.6L62.5,0h-25l6.2,10.8l18.7,32.5L50,64.9l0,0l0,0L31.3,32.5h0L12.5,0H0v21.7l6.3,10.8H0v21.7h18.8
		l12.5,21.6H18.7H0v32.5l6.2-10.8h25L0,151.5v43.3l6.3,10.8H0v21.7h18.8L31.2,249H18.7H0v32.5l6.2-10.8h25L0,324.7v43.3l6.3,10.8H0
		v21.7h18.8l12.5,21.6H18.7H0v32.5l6.2-10.8h25L0,497.9v43.3l6.3,10.8H0v21.7h18.8l12.5,21.6H18.7H0v32.5L6.2,617h25L0,671.1v43.3
		l6.3,10.8H0v21.7h18.8l9.4,16.3l3.1,5.3H18.7H0V801l6.2-10.8h25L25,801l0,0L5.8,834.4l-5.8,10V866h12.5L25,844.3L37.5,866h25
		l-6.2-10.8l-18.7-32.5l9.4-16.3l3.1-5.3l0,0l0,0l18.7,32.5h0L87.5,866l0,0h225l12.5-21.7l12.5,21.7h25l-6.2-10.8l-18.7-32.5
		l9.4-16.3l3.1-5.3l0,0l0,0l18.7,32.5h0l18.7,32.5l0,0h225l1.6-2.7l10.9-18.9l12.5,21.7h25l-6.2-10.8l-18.7-32.5l12.5-21.6l0,0l0,0
		l18.7,32.5h0l18.7,32.5v0H900v-21.7l-6.3,10.8h-25l18.7-32.5L900,801v-32.5h-6.3h-37.5l-12.5-21.6H900v-21.7h-68.7l-12.5-21.7h12.5
		h25h37.5l6.3,10.8v-43.3l-6.3,10.8h-25l18.7-32.5l12.5-21.7v-32.5h-6.3h-37.5l-12.5-21.6H900v-21.7h-68.7l-12.5-21.7h12.5h25h37.5
		l6.3,10.8v-43.3l-2,3.4l-4.3,7.4h-25l18.7-32.5l12.5-21.7v-32.5h-6.3h-37.5l-12.5-21.6H900v-21.7h-68.7l-12.5-21.7h12.5h25h37.5
		l6.3,10.8v-43.3l-6.3,10.8h-25l18.7-32.5l12.5-21.7V249h-6.3h-37.5l-12.5-21.6H900v-21.7h-68.7L818.8,184h12.5h25h37.5l6.3,10.8
		v-43.3l-6.3,10.8h-25l18.7-32.5l12.5-21.7V75.8h-6.3h-37.5l-12.5-21.6H900V32.5h-68.7l-12.5-21.7h12.5h25h37.5l6.3,10.8V0H687.5
		L675,21.6L662.5,0h-25l6.2,10.8l18.7,32.5L650,64.9l0,0l0,0l-5.9-10.3l-12.8-22.2h0L612.5,0h-225L375,21.6L362.5,0h-25l6.2,10.8
		l18.7,32.5L350,64.9l0,0l0,0l-18.7-32.5h0L312.5,0h-225L75,21.6z M50,108.3L50,108.3L50,108.3l18.8,32.5h0l18.7,32.5L75,194.8
		l-18.7-32.5l-18.8-32.5L50,108.3z M256.2,97.4h25l-18.7,32.5l-18.8,32.5h-25l6.2-10.8v0L256.2,97.4z M406.2,184h25l-18.7,32.5
		L393.8,249h-25l6.2-10.8v0L406.2,184z M468.8,140.7l12.5,21.6h-12.5h-25h-37.5l-12.5-21.6H468.8z M381.3,119.1l-12.5-21.7h12.5h25
		h37.5l12.5,21.7H381.3z M537.5,129.9l18.7-32.5h25l-18.7,32.5l-18.8,32.5h-25L537.5,129.9L537.5,129.9z M612.5,129.9l-18.8,32.5
		h-25l18.7-32.5l18.7-32.5h25L612.5,129.9L612.5,129.9z M687.5,216.5l18.7-32.5h25l-18.7,32.5L693.8,249h-25L687.5,216.5
		L687.5,216.5z M762.5,606.2l1.6-2.7l10.9-18.9l37.5,65L800,671.1l0,0l0,0l-6.2-10.8h0L762.5,606.2z M762.5,736.1l-18.8,32.5h-25
		l18.7-32.5l18.7-32.5h25l-6.2,10.8l0,0l-6.3,10.8L762.5,736.1L762.5,736.1z M687.5,736.1l18.7-32.5h25l-18.7,32.5l-18.8,32.5h-25
		L687.5,736.1L687.5,736.1z M612.5,649.5L593.8,682h-25l18.7-32.5l18.7-32.5h25L612.5,649.5L612.5,649.5z M231.3,725.3l-12.5-21.7
		h12.5h25h37.5l12.5,21.7H231.3z M318.8,746.9l9.4,16.3l3.1,5.3h-12.5h-25h-37.5l-12.5-21.6H318.8z M106.2,184h25l-18.7,32.5
		L93.8,249h-25l6.2-10.8v0L106.2,184z M256.2,270.6h25l-18.7,32.5l-18.8,32.5h-25l6.2-10.8v0L256.2,270.6z M106.2,357.2h25
		l-18.7,32.5l-18.8,32.5h-25l6.2-10.8v0L106.2,357.2z M168.7,335.6h-25h-37.5l-12.5-21.6h75l12.5,21.6H168.7z M181.2,357.2
		l-37.5,64.9h-25l18.8-32.5l18.7-32.5H181.2z M81.3,443.8h25h37.5l11.5,19.9l1,1.8h-75l-12.5-21.7H81.3z M168.8,487.1l7.3,12.7
		l5.2,9h-12.5h-25h-37.5l-12.5-21.6H168.8z M156.2,530.4h25l-6.2,10.8l0,0l-19.2,33.3l-12,20.8h-25l18.8-32.5L156.2,530.4z
		 M162.5,433l12.5-21.7l18.8,32.5l18.7,32.5L200,497.9l0,0l0,0l-18.7-32.5h0L162.5,433z M200,541.3L200,541.3L200,541.3l18.8,32.5h0
		l18.7,32.5L225,627.8l-18.7-32.5l-18.7-32.5L200,541.3z M237.5,649.5L237.5,649.5l18.7-32.5h25l-18.7,32.5L243.8,682h-25
		L237.5,649.5z M231.3,552.1l-12.5-21.7h12.5h25h37.5l12.5,21.7H231.3z M218.8,508.8l12.9-22.4l24.6-42.5h25l-18.7,32.5l-18.8,32.5
		H218.8z M293.8,508.8h-25l18.8-32.5l18.7-32.5h25L293.8,508.8z M318.7,422.2h-25h-37.5l-12.5-21.6h75l12.5,21.6H318.7z
		 M231.3,378.9l-12.5-21.7h12.5h25h37.5l12.5,21.7H231.3z M293.8,335.6h-25l18.8-32.5l18.7-32.5h25L293.8,335.6z M237.5,433
		L225,454.6l-18.7-32.5l-18.8-32.5L200,368l0,0l0,0l18.7,32.5h0L237.5,433z M200,324.7L200,324.7L200,324.7l-18.8-32.5h0l-18.7-32.5
		l12.5-21.7l18.8,32.5l18.7,32.5L200,324.7z M143.8,249h-25l18.8-32.5l18.7-32.5h25L143.8,249z M81.3,270.6h25h37.5l12.5,21.7h-75
		l-12.5-21.7H81.3z M87.5,346.4L75,368l-18.7-32.5l-18.8-32.5L50,281.5l0,0l0,0l18.7,32.5h0L87.5,346.4z M68.8,487.1l18.7,32.5
		L75,541.2l-32.4-56.2l-5.1-8.8L50,454.6l0,0l0,0L68.8,487.1L68.8,487.1z M75,584.6L75,584.6l31.2-54.1h25l-18.7,32.5l-18.8,32.5
		h-25L75,584.6z M81.3,617h25h37.5l6.9,11.9l5.6,9.8h-75L68.8,617H81.3z M168.7,660.3l12.5,21.6h-12.5h-25h-37.5l-12.5-21.6H168.7z
		 M156.2,703.6h25l-6.2,10.8l0,0l-19.2,33.3l-12,20.8h-25l18.8-32.5L156.2,703.6z M162.5,606.2l12.5-21.7l37.5,65L200,671.1l0,0l0,0
		l-18.7-32.5h0L162.5,606.2z M196.9,719.8l3.1-5.3l0,0l0,0l18.7,32.5h0l18.7,32.5L225,801l-37.5-65L196.9,719.8z M293.8,682h-25
		l18.8-32.5l18.7-32.5h25L293.8,682z M318.7,595.4h-25h-37.5l-12.5-21.6h75l12.5,21.6H318.7z M324.5,540.4l-12-20.8l12.5-21.7
		l37.5,65L350,584.5l0,0l0,0L324.5,540.4z M342.6,485.1l-5.1-8.8l12.5-21.6l0,0l0,0l18.7,32.5h0l18.7,32.5L375,541.2L342.6,485.1z
		 M406.2,357.2h25l-18.7,32.5l-18.8,32.5h-25l6.2-10.8v0L406.2,357.2z M475,238.1l37.5,65L500,324.7l0,0l0,0l-2.7-4.7l-16-27.8h0
		l-18.7-32.5L475,238.1z M443.8,249h-25l18.8-32.5l18.7-32.5h25L443.8,249z M537.5,303.1l18.7-32.5h25l-18.7,32.5l-18.8,32.5h-25
		L537.5,303.1L537.5,303.1z M612.5,303.1l-18.8,32.5h-25l18.7-32.5l18.7-32.5h25L612.5,303.1L612.5,303.1z M531.3,357.2h25h37.5
		l12.5,21.7h-75l-12.5-21.7H531.3z M612.5,476.3L598,501.4l-4.3,7.4h-25l18.7-32.5l18.7-32.5h25L612.5,476.3L612.5,476.3z
		 M443.8,443.8l11.5,19.9l1,1.8h-75l-12.5-21.7h12.5h25H443.8z M418.7,422.2l18.8-32.5l18.7-32.5h25l-37.5,64.9H418.7z M468.8,487.1
		l7.3,12.7l5.2,9h-12.5h-25h-37.5l-12.5-21.6H468.8z M456.2,530.4h25l-6.2,10.8l0,0l-19.2,33.3l-12,20.8h-25l18.8-32.5L456.2,530.4z
		 M462.5,433l12.5-21.7l37.5,65L500,497.9l0,0l0,0l-2.7-4.7l-16-27.8h0L462.5,433z M500,541.3L500,541.3L500,541.3l6.3,10.8h0
		l31.2,54.1L525,627.8l-37.5-65L500,541.3z M537.5,649.5L537.5,649.5l18.7-32.5h25l-18.7,32.5L543.8,682h-25L537.5,649.5z
		 M556.2,595.4l-12.5-21.6h75l12.5,21.6h-12.5h-25H556.2z M531.3,552.1l-12.5-21.7h12.5h25h37.5l12.5,21.7H531.3z M537.5,476.3
		l18.7-32.5h25l-18.7,32.5l-18.8,32.5h-25L537.5,476.3L537.5,476.3z M618.7,422.2h-25h-37.5l-12.5-21.6h75l2.3,4.1l10.2,17.6H618.7z
		 M537.5,433L525,454.6l-37.5-65L500,368l0,0l0,0l18.7,32.5h0L537.5,433z M468.8,313.9l12.5,21.6h-12.5h-25h-37.5l-12.5-21.6H468.8z
		 M375,584.6L375,584.6l31.2-54.1h25l-18.7,32.5l-18.8,32.5h-25L375,584.6z M381.3,617h25h37.5l6.9,11.9l5.6,9.8h-75L368.8,617
		H381.3z M468.7,660.3l12.5,21.6h-12.5h-25h-37.5l-12.5-21.6H468.7z M456.2,703.6h25l-6.2,10.8l0,0l-19.2,33.3l-12,20.8h-25
		l18.8-32.5L456.2,703.6z M462.5,606.2l12.5-21.7l37.5,65L500,671.1l0,0l0,0l-5.3-9.1l-1-1.7l-0.9-1.6l-11.6-20.1h0L462.5,606.2z
		 M500,714.5L500,714.5L500,714.5l6.3,10.8h0l31.2,54.1L525,801l-37.5-65L500,714.5z M531.3,725.3l-12.5-21.7h12.5h25h37.5
		l12.5,21.7H531.3z M612.5,519.6l12.5-21.7l29.2,50.5l8.3,14.4L650,584.5l0,0l0,0L612.5,519.6z M637.5,476.3l12.5-21.6l0,0l0,0
		l18.7,32.5h0l18.7,32.5L675,541.2l-5.4-9.3L637.5,476.3z M687.5,389.7l18.7-32.5h25l-18.7,32.5l-18.8,32.5h-25L687.5,389.7
		L687.5,389.7z M762.5,389.7l-18.8,32.5h-25l18.7-32.5l18.7-32.5h25L762.5,389.7L762.5,389.7z M768.7,335.6h-25h-37.5l-12.5-21.6h75
		l2.3,4.1l10.2,17.6H768.7z M681.3,443.8h25h37.5l12.5,21.7h-75l-12.5-21.7H681.3z M762.5,562.9l-18.8,32.5h-25l18.7-32.5l18.7-32.5
		h25l-6.2,10.8l0,0l-4.2,7.2L762.5,562.9L762.5,562.9z M768.7,508.8h-25h-37.5l-12.5-21.6h75l12.5,21.6H768.7z M675,584.6L675,584.6
		l6.3-10.8l6.3-10.8l0,0l18.7-32.5h25l-18.7,32.5l-18.8,32.5h-25L675,584.6z M681.3,617h25h37.5l12.5,21.7h-75L668.8,617H681.3z
		 M768.7,682h-25h-37.5l-12.5-21.6h75l12.5,21.6H768.7z M781.2,465.5L762.5,433l7.5-13l5-8.6l18.8,32.5l18.7,32.5L800,497.9l0,0l0,0
		l-5.9-10.3L781.2,465.5L781.2,465.5z M781.2,292.3l-18.7-32.5l7.5-13l5-8.6l18.8,32.5l18.7,32.5L800,324.7l0,0l0,0l-5.9-10.3
		L781.2,292.3L781.2,292.3z M762.5,216.5L743.8,249h-25l18.7-32.5l18.7-32.5h25L762.5,216.5L762.5,216.5z M781.2,119.1l-18.7-32.5
		l7.5-13l5-8.6l18.8,32.5l18.7,32.5L800,151.5l0,0l0,0l-5.9-10.3L781.2,119.1L781.2,119.1z M768.8,140.7l2.3,4.1l10.2,17.6h-12.5
		h-25h-37.5l-12.5-21.6H768.8z M681.3,270.6h25h37.5l12.5,21.7h-75l-12.5-21.7H681.3z M687.5,346.4L675,368l-18.7-32.5l-18.8-32.5
		l12.5-21.6l0,0l0,0l18.7,32.5h0L687.5,346.4z M643.8,357.2l18.7,32.5L650,411.3l0,0l0,0l-5.9-10.3l-12.8-22.2h0l-18.7-32.5l7.5-13
		l5-8.6L643.8,357.2z M618.7,249h-25h-37.5l-12.5-21.6h75l2.3,4.1l10.2,17.6H618.7z M531.3,205.7L518.8,184h12.5h25h37.5l12.5,21.7
		H531.3z M537.5,259.8L525,281.4l-37.5-65l12.5-21.6l0,0l0,0l18.7,32.5h0L537.5,259.8z M500,151.5L500,151.5L500,151.5l-2.7-4.7
		l-16-27.8h0l-18.7-32.5L475,64.9l37.5,65L500,151.5z M381.3,270.6h25h37.5l12.5,21.7h-75l-12.5-21.7H381.3z M387.5,346.4L375,368
		l-18.7-32.5l-18.8-32.5l12.5-21.6l0,0l0,0l18.7,32.5h0L387.5,346.4z M343.8,357.2l18.7,32.5L350,411.3l0,0l0,0l-18.7-32.5h0
		l-18.7-32.5l12.5-21.7L343.8,357.2z M318.7,249h-25h-37.5l-12.5-21.6h75l12.5,21.6H318.7z M231.3,205.7L218.8,184h12.5h25h37.5
		l12.5,21.7H231.3z M293.8,162.4h-25l18.8-32.5l18.7-32.5h25L293.8,162.4z M237.5,259.8L225,281.4L206.2,249l-18.8-32.5l12.5-21.6
		l0,0l0,0l18.7,32.5h0L237.5,259.8z M200,151.5L200,151.5L200,151.5l-18.8-32.5h0l-18.7-32.5L175,64.9l18.8,32.5l18.7,32.5
		L200,151.5z M168.8,140.7l12.5,21.6h-12.5h-25h-37.5l-12.5-21.6H168.8z M81.3,119.1L68.8,97.4h12.5h25h37.5l12.5,21.7H81.3z
		 M12.5,173.2L25,151.5L43.8,184l18.7,32.5L50,238.1l0,0l0,0l-18.7-32.5h0L12.5,173.2z M12.5,346.4L25,324.7l18.8,32.5l18.7,32.5
		L50,411.3l0,0l0,0l-18.7-32.5h0L12.5,346.4z M24.5,540.4l-12-20.8L25,497.9l37.5,65L50,584.5l0,0l0,0L24.5,540.4z M50,757.7
		L50,757.7L50,757.7l-18.8-32.5h0l-18.8-32.5l6.9-11.9l5.6-9.8l18.8,32.5l18.7,32.5L50,757.7z M37.5,649.5L50,627.8l0,0l0,0
		l18.7,32.5h0l18.7,32.5L75,714.5L37.5,649.5z M75,757.8L75,757.8l31.2-54.1h25l-18.7,32.5l-18.8,32.5h-25L75,757.8z M81.3,811.9
		l-12.5-21.7h12.5h25h37.5l6.9,11.9l5.6,9.8H81.3z M168.7,855.2h-25h-37.5l-12.5-21.6h75l12.5,21.6H168.7z M200,844.3L200,844.3
		L200,844.3l-18.8-32.5h0l-18.7-32.5l12.5-21.7l18.8,32.5l18.7,32.5L200,844.3z M243.8,855.2h-25l6.2-10.8l0,0l31.2-54.1h25
		l-18.7,32.5L243.8,855.2z M325,801L325,801l-19.2,33.3l-12,20.8h-25l18.8-32.5l18.7-32.5h25L325,801z M350,757.7L350,757.7
		L350,757.7l-18.8-32.5h0l-18.8-32.5l6.9-11.9l5.6-9.8l18.8,32.5l18.7,32.5L350,757.7z M337.5,649.5l12.5-21.6l0,0l0,0l18.7,32.5h0
		l18.7,32.5L375,714.5L337.5,649.5z M375,757.8L375,757.8l31.2-54.1h25l-18.7,32.5l-18.8,32.5h-25L375,757.8z M381.3,811.9
		l-12.5-21.7h12.5h25h37.5l6.9,11.9l5.6,9.8H381.3z M468.7,855.2h-25h-37.5l-12.5-21.6h75l12.5,21.6H468.7z M500,844.3L500,844.3
		L500,844.3l-5.3-9.1l-1-1.7l-0.9-1.6l-11.6-20.1h0l-18.7-32.5l12.5-21.7l37.5,65L500,844.3z M543.8,855.2h-25l18.7-32.5l18.7-32.5
		h25l-18.7,32.5L543.8,855.2z M625,801L625,801l-6.3,10.8l-6.3,10.8l0,0l-18.8,32.5h-25l18.7-32.5l18.7-32.5h25L625,801z
		 M618.7,768.6h-25h-37.5l-12.5-21.6h75l12.5,21.6H618.7z M650,757.7L650,757.7L650,757.7l-18.8-32.5l-18.8-32.5l12.5-21.7
		l18.8,32.5l18.7,32.5L650,757.7z M637.5,649.5l12.5-21.6l0,0l0,0l18.7,32.5h0l18.7,32.5L675,714.5L637.5,649.5z M681.3,811.9
		l-12.5-21.7h12.5h25h37.5l12.5,21.7H681.3z M768.7,855.2h-25h-37.5l-12.5-21.6h75l12.5,21.6H768.7z M800,844.3L800,844.3L800,844.3
		l-6.3-10.8h0l-31.3-54.1l1.6-2.7l10.9-18.9l18.7,32.5l18.7,32.5L800,844.3z M856.2,790.2h25l-18.7,32.5l-18.8,32.5h-25l18.7-32.5
		L856.2,790.2z M837.5,779.4L825,801l-32.1-55.7l-5.4-9.3l12.5-21.6l0,0l0,0l6.2,10.8h0L837.5,779.4z M856.2,617h25l-18.7,32.5
		L843.8,682h-25l18.7-32.5l0,0L856.2,617z M837.5,606.2L825,627.8l-18.7-32.5l-18.7-32.5l12.5-21.6l0,0l0,0l6.2,10.8h0L837.5,606.2z
		 M856.2,443.8h25l-18.7,32.5l-18.8,32.5h-25l18.7-32.5l0,0L856.2,443.8z M837.5,433L825,454.6l-18.7-32.5l-18.8-32.5L800,368l0,0
		l0,0l18.7,32.5h0L837.5,433z M856.2,270.6h25l-18.7,32.5l-18.8,32.5h-25l18.7-32.5l0,0L856.2,270.6z M837.5,259.8L825,281.4
		L806.3,249l-18.8-32.5l12.5-21.6l0,0l0,0l18.7,32.5h0L837.5,259.8z M856.2,97.4h25l-18.7,32.5l-18.8,32.5h-25l18.7-32.5l0,0
		L856.2,97.4z M800,21.6l18.8,32.5h0l18.7,32.5L825,108.2l-18.7-32.5l-18.8-32.5L800,21.6z M756.3,10.8h25l-18.8,32.5l0,0
		l-18.8,32.5h-25l18.7-32.5L756.3,10.8z M687.5,43.3L687.5,43.3l18.8-32.5h25l-18.7,32.5l-18.8,32.5h-25L687.5,43.3z M681.3,97.4h25
		h37.5l12.5,21.7h-75l-12.5-21.7H681.3z M650,108.3L650,108.3L650,108.3l18.8,32.5h0l18.7,32.5L675,194.8l-18.7-32.5l-18.8-32.5
		L650,108.3z M643.8,184l18.7,32.5L650,238.1l0,0l0,0l-5.9-10.3l-12.8-22.2h0l-18.7-32.5l7.5-13l5-8.6L643.8,184z M618.8,54.1
		l2.3,4.1l10.2,17.6h-12.5h-25h-37.5l-12.5-21.6H618.8z M531.3,10.8h25h37.5l12.5,21.7h-75l-12.5-21.7H531.3z M500,21.6l18.8,32.5h0
		l18.7,32.5L525,108.2l-37.5-65L500,21.6z M456.3,10.8h25l-37.5,65h-25l18.8-32.5L456.3,10.8z M375,65L375,65l31.3-54.1h25
		l-18.8,32.5l-18.8,32.5h-25L375,65z M350,108.3L350,108.3L350,108.3l18.8,32.5h0l18.7,32.5L375,194.8l-18.7-32.5l-18.8-32.5
		L350,108.3z M343.8,184l18.7,32.5L350,238.1l0,0l0,0l-18.7-32.5h0l-18.7-32.5l12.5-21.7L343.8,184z M318.8,54.1l12.5,21.6h-12.5
		h-25h-37.5l-12.5-21.6H318.8z M231.3,10.8h25h37.5l12.5,21.7h-75l-12.5-21.7H231.3z M200,21.6l18.8,32.5h0l18.7,32.5L225,108.3
		l-18.7-32.5l-18.8-32.5L200,21.6z M156.3,10.8h25l-37.5,65h-25l18.8-32.5L156.3,10.8z M112.5,43.3L93.8,75.8h-25L75,65v0l31.3-54.1
		h25L112.5,43.3z"/>
</g>
</svg>
